<svg xmlns="http://www.w3.org/2000/svg" xmlns:xlink="http://www.w3.org/1999/xlink" version="1.1" style="" xml:space="preserve" width="55.11602080696139" height="62.85082768131997"><rect id="backgroundrect" width="100%" height="100%" x="0" y="0" fill="none" stroke="none" class="" style=""/>
<style type="text/css">
	.st0{fill:#333333;}
</style>

<g class="currentLayer" style=""><title>Layer 1</title><g id="XMLID_2_" class="">
	<path id="XMLID_8_" class="st0" d="M27.55801010131836,27.12541313171387 c5.3,0 10.2,-0.5 14.8,-1.4 c4.6,-1 8.2,-2.4 10.9,-4.3 v5.7 c0,1.5 -1.1,3 -3.4,4.3 s-5.4,2.4 -9.4,3.1 s-8.2,1.2 -12.9,1.2 s-8.9,-0.4 -12.9,-1.2 S7.558010101318359,32.725413131713864 5.258010101318359,31.425413131713867 s-3.4,-2.7 -3.4,-4.3 V21.425413131713867 c2.7,1.9 6.3,3.3 10.9,4.3 C17.358010101318357,26.62541313171387 22.258010101318362,27.12541313171387 27.55801010131836,27.12541313171387 zM27.55801010131836,52.82541313171387 c5.3,0 10.2,-0.5 14.8,-1.4 c4.6,-1 8.2,-2.4 10.9,-4.3 v5.7 c0,1.5 -1.1,3 -3.4,4.3 s-5.4,2.4 -9.4,3.1 S32.15801010131836,61.42541313171387 27.55801010131836,61.42541313171387 s-8.9,-0.4 -12.9,-1.2 S7.558010101318359,58.42541313171387 5.258010101318359,57.12541313171387 s-3.4,-2.7 -3.4,-4.3 v-5.7 c2.7,1.9 6.3,3.3 10.9,4.3 C17.358010101318357,52.32541313171387 22.258010101318362,52.82541313171387 27.55801010131836,52.82541313171387 zM27.55801010131836,40.02541313171387 c5.3,0 10.2,-0.5 14.8,-1.4 s8.2,-2.4 10.9,-4.3 v5.7 c0,1.5 -1.1,3 -3.4,4.3 s-5.4,2.4 -9.4,3.1 c-4,0.8 -8.2,1.2 -12.9,1.2 s-8.9,-0.4 -12.9,-1.2 c-4,-0.8 -7.1,-1.8 -9.4,-3.1 s-3.4,-2.7 -3.4,-4.3 v-5.7 c2.7,1.9 6.3,3.3 10.9,4.3 S22.258010101318362,40.02541313171387 27.55801010131836,40.02541313171387 zM27.55801010131836,1.4254131317138672 c4.6,0 8.9,0.4 12.9,1.2 c4,0.8 7.1,1.8 9.4,3.1 c2.3,1.3 3.4,2.7 3.4,4.3 v4.3 c0,1.5 -1.1,3 -3.4,4.3 c-2.3,1.3 -5.4,2.4 -9.4,3.1 s-8.2,1.2 -12.9,1.2 s-8.9,-0.4 -12.9,-1.2 s-7.1,-1.8 -9.4,-3.1 c-2.3,-1.3 -3.4,-2.7 -3.4,-4.3 v-4.3 c0,-1.5 1.1,-3 3.4,-4.3 c2.3,-1.3 5.4,-2.4 9.4,-3.1 C18.65801010131836,1.8254131317138658 22.958010101318358,1.4254131317138672 27.55801010131836,1.4254131317138672 z"/>
</g></g></svg>