<?xml version="1.0" standalone="no"?>
<!DOCTYPE svg PUBLIC "-//W3C//DTD SVG 20010904//EN"
 "http://www.w3.org/TR/2001/REC-SVG-20010904/DTD/svg10.dtd">
<svg version="1.0" xmlns="http://www.w3.org/2000/svg"
 width="1280.000000pt" height="1128.000000pt" viewBox="0 0 1280.000000 1128.000000"
 preserveAspectRatio="xMidYMid meet">
<metadata>
Created by potrace 1.16, written by Peter Selinger 2001-2019
</metadata>
<g transform="translate(0.000000,1128.000000) scale(0.100000,-0.100000)"
fill="#000000" stroke="none">
<path d="M6105 11145 c-639 -95 -1184 -447 -1520 -986 -389 -624 -429 -1410
-105 -2074 257 -526 733 -932 1287 -1100 526 -160 1080 -118 1568 120 210 102
374 216 539 375 354 341 568 753 643 1240 26 170 24 474 -5 640 -51 299 -145
554 -293 793 -335 540 -896 905 -1527 991 -138 19 -458 20 -587 1z"/>
<path d="M2460 9553 c-19 -2 -86 -16 -149 -29 -478 -106 -879 -426 -1091 -869
-210 -439 -210 -953 0 -1390 235 -488 698 -824 1237 -896 128 -17 424 -6 541
20 321 71 571 209 803 440 232 232 376 501 441 824 33 162 33 452 0 614 -43
215 -132 426 -255 608 -91 134 -284 323 -427 418 -283 187 -558 269 -898 265
-92 0 -183 -3 -202 -5z"/>
<path d="M9855 9541 c-658 -120 -1165 -617 -1297 -1274 -33 -162 -33 -452 0
-614 61 -304 203 -579 412 -797 240 -250 511 -399 860 -473 131 -28 499 -25
632 4 234 53 443 147 626 282 741 550 868 1611 276 2322 -227 272 -540 461
-897 540 -135 30 -472 36 -612 10z"/>
<path d="M4634 6890 c-246 -26 -506 -118 -709 -250 -356 -233 -595 -580 -697
-1012 l-22 -93 -4 -2555 c-2 -1934 0 -2568 9 -2610 28 -133 148 -293 260 -347
l46 -23 2883 0 2883 0 46 22 c63 31 180 150 214 219 61 122 57 -64 57 2681 0
1729 -3 2541 -11 2595 -91 667 -600 1211 -1261 1347 -136 28 -255 36 -565 36
l-301 0 -529 -1585 c-290 -872 -530 -1585 -533 -1585 -3 0 -243 713 -533 1585
l-529 1585 -316 -1 c-174 -1 -349 -5 -388 -9z"/>
<path d="M877 5814 c-411 -74 -728 -366 -850 -783 l-22 -76 -3 -1745 c-2
-1716 -2 -1746 17 -1810 55 -182 228 -335 415 -369 41 -8 404 -11 1148 -11
l1088 0 0 1903 c0 1248 4 1942 11 2017 24 262 94 512 210 750 l68 140 -1002
-1 c-818 -1 -1016 -3 -1080 -15z"/>
<path d="M9909 5690 c116 -238 186 -488 210 -750 7 -75 11 -769 11 -2017 l0
-1903 1088 0 c729 0 1108 4 1148 11 102 18 211 78 285 156 35 38 76 91 91 119
61 114 58 7 58 1877 0 1846 2 1760 -52 1922 -111 335 -392 596 -743 692 l-100
28 -1032 3 -1032 3 68 -141z"/>
</g>
</svg>
