<svg height="512" viewBox="0 0 512 512" width="512" xmlns="http://www.w3.org/2000/svg"><g id="Flat"><path d="m432 440h-16v-48h-320v48h-16v-56a8 8 0 0 1 8-8h336a8 8 0 0 1 8 8z" fill="#88bf40"/><rect fill="#0093ba" height="320" rx="24" width="192" x="160" y="24"/><path d="m248 328h16v112h-16z" fill="#88bf40"/><path d="m232 48h16v16h-16z" fill="#7ecce6"/><path d="m264 48h16v16h-16z" fill="#7ecce6"/><path d="m222.644 166.042-11.9 11.9 11.314 11.315 11.9-11.9a39.774 39.774 0 0 0 14.042 5.843v16.8h16v-16.8a39.774 39.774 0 0 0 14.042-5.839l11.9 11.9 11.314-11.315-11.9-11.9a39.764 39.764 0 0 0 5.844-14.046h16.8v-16h-16.8a39.764 39.764 0 0 0 -5.839-14.042l11.9-11.9-11.32-11.313-11.9 11.9a39.774 39.774 0 0 0 -14.041-5.84v-16.805h-16v16.805a39.774 39.774 0 0 0 -14.042 5.839l-11.9-11.9-11.313 11.316 11.9 11.9a39.764 39.764 0 0 0 -5.84 14.04h-16.805v16h16.805a39.764 39.764 0 0 0 5.839 14.042zm33.356-46.042a24 24 0 1 1 -24 24 24.028 24.028 0 0 1 24-24z" fill="#ffc119"/><g fill="#7ecce6"><path d="m192 224h16v16h-16z"/><path d="m224 224h96v16h-96z"/><path d="m192 256h128v16h-128z"/></g><path d="m248 296h16v16h-16z" fill="#ffc119"/><path d="m24 424h128v64h-128z" fill="#ffc119"/><path d="m48 448h16v16h-16z" fill="#faac2b"/><path d="m80 448h48v16h-48z" fill="#faac2b"/><path d="m192 424h128v64h-128z" fill="#ffc119"/><path d="m216 448h16v16h-16z" fill="#faac2b"/><path d="m248 448h48v16h-48z" fill="#faac2b"/><path d="m360 424h128v64h-128z" fill="#ffc119"/><path d="m384 448h16v16h-16z" fill="#faac2b"/><path d="m416 448h48v16h-48z" fill="#faac2b"/></g></svg>