<?xml version="1.0" encoding="utf-8"?>
<!-- Generator: Adobe Illustrator 16.0.0, SVG Export Plug-In . SVG Version: 6.00 Build 0)  -->
<!DOCTYPE svg PUBLIC "-//W3C//DTD SVG 1.1//EN" "http://www.w3.org/Graphics/SVG/1.1/DTD/svg11.dtd">
<svg version="1.1" id="Layer_1" xmlns="http://www.w3.org/2000/svg" xmlns:xlink="http://www.w3.org/1999/xlink" x="0px" y="0px"
	 width="512px" height="512px" viewBox="0 0 512 512" enable-background="new 0 0 512 512" xml:space="preserve">
<g>
	<path d="M369.818,195.01c-24.471,42.493-65.783,75.375-113.802,75.375c-48.025,0-89.369-32.882-113.835-75.357
		c-49,23.252-83.014,73.06-83.014,130.945v128.986c0,27.407,22.216,49.619,49.584,49.619h294.49c27.469,0,49.59-22.212,49.59-49.619
		V325.973C452.832,268.079,418.881,218.265,369.818,195.01z M341.438,317.276L250.02,436.739c-3.356,4.357-8.341,7.176-13.812,7.779
		c-0.717,0.082-1.469,0.123-2.218,0.123c-4.69,0-9.284-1.646-12.899-4.692l-54.476-45.53c-8.536-7.144-9.675-19.851-2.508-28.394
		c7.103-8.521,19.84-9.668,28.375-2.526l38.314,32.036l78.65-102.751c6.776-8.829,19.417-10.507,28.244-3.747
		C346.522,295.797,348.219,308.447,341.438,317.276z"/>
	<path d="M256.017,237.022c57.504,0,104.091-67.962,104.091-125.457c0-57.521-46.587-104.144-104.091-104.144
		c-57.537,0-104.129,46.623-104.129,104.144C151.888,169.061,198.479,237.022,256.017,237.022z"/>
</g>
</svg>
