<svg xmlns="http://www.w3.org/2000/svg" width="58.74585527069735" height="123.89502758937726" style=""><rect id="backgroundrect" width="100%" height="100%" x="0" y="0" fill="none" stroke="none" class="" style=""/><g class="currentLayer" style=""><title>Layer 1</title><path fill="#439934" fill-rule="evenodd" d="M53.231370819091794,41.15454133701324 c1.605,4.643 2.761,9.383000000000001 3.141,14.296 c0.47200000000000003,6.095 0.256,12.147 -1.029,18.142 c-0.035,0.16500000000000004 -0.10900000000000001,0.32000000000000006 -0.16400000000000003,0.48000000000000004 c-0.403,0.0010000000000000002 -0.8140000000000001,-0.04900000000000001 -1.208,0.012000000000000002 c-3.329,0.523 -6.655,1.065 -9.981,1.604 c-3.438,0.557 -6.881,1.092 -10.313,1.6870000000000003 c-1.216,0.21000000000000002 -2.721,-0.04100000000000001 -3.212,1.641 c-0.014000000000000002,0.04600000000000001 -0.15400000000000003,0.05400000000000001 -0.23500000000000001,0.08000000000000002 l0.16600000000000004,-10.051 c-0.05700000000000001,-8.084 -0.11300000000000002,-16.168 -0.16900000000000004,-24.252 l1.602,-0.275 c2.62,-0.42900000000000005 5.24,-0.8640000000000001 7.862,-1.2810000000000001 c3.129,-0.49700000000000005 6.261,-0.98 9.392,-1.465 c1.381,-0.21500000000000002 2.7640000000000002,-0.41200000000000003 4.148,-0.6180000000000001 z" clip-rule="evenodd" id="svg_1" class=""/><path fill="#45A538" fill-rule="evenodd" d="M26.922370819091796,108.39654133701325 c-1.6900000000000002,-1.453 -3.439,-2.842 -5.059,-4.37 c-8.717,-8.222 -15.093,-17.899 -18.233,-29.566 c-0.8650000000000001,-3.211 -1.4420000000000002,-6.474 -1.6270000000000002,-9.792 c-0.13,-2.322 -0.31800000000000006,-4.665 -0.15400000000000003,-6.975 c0.43700000000000006,-6.144 1.3250000000000002,-12.229 3.127,-18.147 l0.09900000000000003,-0.138 c0.17500000000000002,0.233 0.42700000000000005,0.43900000000000006 0.516,0.7020000000000001 c1.7590000000000001,5.18 3.505,10.364 5.242,15.551 c5.458,16.3 10.909,32.604 16.376,48.9 c0.10700000000000001,0.31800000000000006 0.38400000000000006,0.5790000000000001 0.5830000000000001,0.8660000000000001 l-0.8700000000000001,2.9690000000000003 z" clip-rule="evenodd" id="svg_2" class=""/><path fill="#46A037" fill-rule="evenodd" d="M53.231370819091794,41.15454133701324 c-1.3840000000000001,0.20600000000000002 -2.7680000000000002,0.403 -4.149,0.6160000000000001 c-3.1310000000000002,0.48500000000000004 -6.263,0.9680000000000001 -9.392,1.465 c-2.622,0.41700000000000004 -5.242,0.8520000000000001 -7.862,1.2810000000000001 l-1.602,0.275 l-0.012000000000000002,-1.045 c-0.05300000000000001,-0.8590000000000001 -0.14400000000000002,-1.717 -0.15400000000000003,-2.576 c-0.06900000000000002,-5.478 -0.11200000000000002,-10.956 -0.18000000000000002,-16.434 c-0.04200000000000001,-3.4290000000000003 -0.10500000000000001,-6.857 -0.17500000000000002,-10.285 c-0.04300000000000001,-2.13 -0.08900000000000002,-4.261 -0.18500000000000003,-6.388 c-0.05200000000000001,-1.143 -0.23600000000000002,-2.2800000000000002 -0.31100000000000005,-3.423 c-0.04200000000000001,-0.6570000000000001 0.016000000000000004,-1.319 0.029000000000000005,-1.979 c0.8170000000000001,1.5830000000000002 1.616,3.178 2.456,4.7490000000000006 c1.327,2.484 3.441,4.314 5.344,6.311 c7.523,7.892 12.864,17.068 16.193,27.433 z" clip-rule="evenodd" id="svg_3" class=""/><path fill="#409433" fill-rule="evenodd" d="M30.2293708190918,79.09554133701324 c0.08100000000000002,-0.026000000000000006 0.22200000000000003,-0.03400000000000001 0.23500000000000001,-0.08000000000000002 c0.49100000000000005,-1.6820000000000002 1.996,-1.431 3.212,-1.641 c3.432,-0.5940000000000001 6.875,-1.13 10.313,-1.6870000000000003 c3.326,-0.539 6.652,-1.081 9.981,-1.604 c0.3940000000000001,-0.06200000000000001 0.805,-0.011000000000000003 1.208,-0.012000000000000002 c-0.6220000000000001,2.22 -1.112,4.488 -1.901,6.647 c-0.8960000000000001,2.449 -1.98,4.839 -3.1310000000000002,7.182 c-1.7200000000000002,3.503 -3.863,6.77 -6.353,9.763 c-1.919,2.308 -4.058,4.441 -6.202,6.548 c-1.185,1.165 -2.582,2.114 -3.882,3.161 l-0.3370000000000001,-0.23 l-1.214,-1.038 l-1.256,-2.753 c-0.8650000000000001,-3.223 -1.319,-6.504 -1.3940000000000001,-9.838000000000001 l0.023000000000000007,-0.561 l0.171,-2.426 c0.05700000000000001,-0.8280000000000001 0.133,-1.6550000000000002 0.16800000000000004,-2.485 c0.129,-2.982 0.24100000000000002,-5.964 0.35900000000000004,-8.946 z" clip-rule="evenodd" id="svg_4" class=""/><path fill="#4FAA41" fill-rule="evenodd" d="M30.2293708190918,79.09554133701324 c-0.11800000000000002,2.982 -0.23,5.964 -0.35700000000000004,8.947 c-0.035,0.8300000000000001 -0.11100000000000002,1.657 -0.16800000000000004,2.485 l-0.7650000000000001,0.28900000000000003 c-1.6990000000000003,-5.002 -3.399,-9.951 -5.062,-14.913 c-2.75,-8.209 -5.467,-16.431 -8.213,-24.642 c-2.217,-6.628 -4.452,-13.249 -6.7,-19.867 c-0.10500000000000001,-0.31000000000000005 -0.40700000000000003,-0.552 -0.6170000000000001,-0.8260000000000001 l4.896,-9.002 c0.16800000000000004,0.29200000000000004 0.39000000000000007,0.5650000000000001 0.49600000000000005,0.8790000000000001 c2.265,6.703 4.526,13.407 6.768,20.118 c2.916,8.73 5.814,17.467 8.728,26.198 c0.11600000000000002,0.3490000000000001 0.30800000000000005,0.6710000000000002 0.49100000000000005,1.062 l0.6700000000000002,-0.78 c-0.05600000000000001,3.351 -0.11200000000000002,6.7010000000000005 -0.16700000000000004,10.052 z" clip-rule="evenodd" id="svg_5" class=""/><path fill="#4AA73C" fill-rule="evenodd" d="M8.348370819091798,30.56954133701324 c0.21000000000000002,0.274 0.511,0.516 0.6170000000000001,0.8260000000000001 c2.248,6.618 4.483,13.239 6.7,19.867 c2.746,8.211 5.463,16.433 8.213,24.642 c1.6620000000000001,4.961 3.362,9.911 5.062,14.913 l0.7650000000000001,-0.28900000000000003 l-0.171,2.426 l-0.15500000000000003,0.559 c-0.266,2.656 -0.49000000000000005,5.318 -0.8140000000000001,7.968 c-0.16300000000000003,1.328 -0.509,2.632 -0.772,3.947 c-0.19800000000000004,-0.28700000000000003 -0.47600000000000003,-0.548 -0.5830000000000001,-0.8660000000000001 c-5.467,-16.297 -10.918,-32.6 -16.376,-48.9 c-1.737,-5.187 -3.483,-10.371 -5.242,-15.551 c-0.08900000000000002,-0.263 -0.3400000000000001,-0.46900000000000003 -0.516,-0.7020000000000001 c1.09,-2.947 2.181,-5.894 3.2720000000000002,-8.84 z" clip-rule="evenodd" id="svg_6" class=""/><path fill="#57AE47" fill-rule="evenodd" d="M30.395370819091795,69.04454133701324 l-0.6700000000000002,0.78 c-0.18300000000000002,-0.39100000000000007 -0.37500000000000006,-0.7140000000000001 -0.49100000000000005,-1.062 c-2.9130000000000003,-8.731 -5.812,-17.468 -8.728,-26.198 c-2.242,-6.711 -4.503,-13.415 -6.768,-20.118 c-0.10500000000000001,-0.31400000000000006 -0.32700000000000007,-0.5880000000000001 -0.49600000000000005,-0.8790000000000001 l6.055,-7.965 c0.19100000000000003,0.255 0.463,0.48200000000000004 0.562,0.7690000000000001 c1.681,4.921 3.347,9.848 5.003,14.778 c1.5470000000000002,4.604 3.071,9.215 4.636,13.813 c0.10500000000000001,0.30800000000000005 0.47000000000000003,0.526 0.7140000000000001,0.786 l0.012000000000000002,1.045 c0.05800000000000001,8.082 0.11500000000000002,16.167 0.171,24.251 z" clip-rule="evenodd" id="svg_7" class=""/><path fill="#60B24F" fill-rule="evenodd" d="M30.214370819091798,43.74654133701325 c-0.24400000000000002,-0.26 -0.6090000000000001,-0.47800000000000004 -0.7140000000000001,-0.786 c-1.565,-4.598 -3.089,-9.209 -4.636,-13.813 c-1.6560000000000001,-4.93 -3.322,-9.856 -5.003,-14.778 c-0.09900000000000003,-0.28700000000000003 -0.37100000000000005,-0.514 -0.562,-0.7690000000000001 c1.969,-1.928 3.8770000000000002,-3.925 5.925,-5.764 c1.8210000000000002,-1.6340000000000001 3.285,-3.386 3.352,-5.968 c0.003000000000000001,-0.10700000000000001 0.05900000000000001,-0.21400000000000002 0.14500000000000002,-0.514 l0.519,1.306 c-0.013000000000000003,0.6610000000000001 -0.07200000000000001,1.322 -0.029000000000000005,1.979 c0.07500000000000001,1.143 0.259,2.2800000000000002 0.31100000000000005,3.423 c0.09600000000000003,2.127 0.14200000000000002,4.258 0.18500000000000003,6.388 c0.06900000000000002,3.428 0.132,6.856 0.17500000000000002,10.285 c0.06700000000000002,5.478 0.11100000000000002,10.956 0.18000000000000002,16.434 c0.008000000000000002,0.8610000000000001 0.09800000000000003,1.718 0.15200000000000002,2.577 z" clip-rule="evenodd" id="svg_8" class=""/><path fill="#A9AA88" fill-rule="evenodd" d="M27.791370819091796,105.42754133701324 c0.263,-1.315 0.6090000000000001,-2.62 0.772,-3.947 c0.32500000000000007,-2.649 0.548,-5.312 0.8140000000000001,-7.968 l0.06600000000000002,-0.010000000000000002 l0.06600000000000002,0.011000000000000003 c0.07500000000000001,3.334 0.529,6.615 1.3940000000000001,9.838000000000001 c-0.17600000000000002,0.232 -0.42500000000000004,0.43900000000000006 -0.518,0.7010000000000001 c-0.7270000000000001,2.05 -1.412,4.116 -2.143,6.166 c-0.1,0.28 -0.37800000000000006,0.49800000000000005 -0.5740000000000001,0.7440000000000001 l-0.7470000000000001,-2.566 l0.8700000000000001,-2.9690000000000003 z" clip-rule="evenodd" id="svg_9" class=""/><path fill="#B6B598" fill-rule="evenodd" d="M27.669370819091796,110.96354133701324 c0.19600000000000004,-0.24600000000000002 0.47500000000000003,-0.464 0.5740000000000001,-0.7440000000000001 c0.7310000000000001,-2.05 1.417,-4.115 2.143,-6.166 c0.09300000000000003,-0.262 0.3410000000000001,-0.46900000000000003 0.518,-0.7010000000000001 l1.255,2.754 c-0.24800000000000003,0.35200000000000004 -0.5900000000000001,0.6690000000000002 -0.7280000000000001,1.061 l-2.404,7.059 c-0.09900000000000003,0.28300000000000003 -0.43700000000000006,0.48300000000000004 -0.6630000000000001,0.7220000000000001 l-0.6950000000000002,-3.985 z" clip-rule="evenodd" id="svg_10" class=""/><path fill="#C2C1A7" fill-rule="evenodd" d="M28.364370819091796,114.94754133701325 c0.22700000000000004,-0.23800000000000002 0.5640000000000001,-0.43900000000000006 0.6630000000000001,-0.7220000000000001 l2.404,-7.059 c0.137,-0.39100000000000007 0.48000000000000004,-0.7090000000000001 0.7280000000000001,-1.061 l1.215,1.037 c-0.5870000000000001,0.5800000000000001 -0.913,1.25 -0.7170000000000001,2.097 l-0.36900000000000005,1.208 c-0.16800000000000004,0.20700000000000002 -0.41100000000000003,0.38700000000000007 -0.49400000000000005,0.6240000000000001 c-0.8390000000000001,2.403 -1.6400000000000001,4.819 -2.485,7.222 c-0.10700000000000001,0.30500000000000005 -0.404,0.544 -0.6140000000000001,0.812 c-0.10900000000000001,-1.387 -0.22000000000000003,-2.771 -0.33100000000000007,-4.158 z" clip-rule="evenodd" id="svg_11" class=""/><path fill="#CECDB7" fill-rule="evenodd" d="M28.696370819091797,119.10554133701325 c0.20900000000000002,-0.269 0.506,-0.508 0.6140000000000001,-0.812 c0.8450000000000001,-2.402 1.6460000000000001,-4.818 2.485,-7.222 c0.08300000000000002,-0.23600000000000002 0.32500000000000007,-0.41700000000000004 0.49400000000000005,-0.6240000000000001 l-0.509,5.545 c-0.136,0.15700000000000003 -0.3330000000000001,0.29400000000000004 -0.3980000000000001,0.47700000000000004 c-0.5750000000000001,1.614 -1.117,3.24 -1.6940000000000002,4.854 c-0.11900000000000002,0.3330000000000001 -0.3470000000000001,0.6270000000000001 -0.525,0.9380000000000001 c-0.15800000000000003,-0.20700000000000002 -0.44100000000000006,-0.40700000000000003 -0.454,-0.6230000000000001 c-0.05100000000000001,-0.8410000000000001 -0.016000000000000004,-1.6880000000000002 -0.013000000000000003,-2.533 z" clip-rule="evenodd" id="svg_12" class=""/><path fill="#DBDAC7" fill-rule="evenodd" d="M29.162370819091798,122.26154133701324 c0.17800000000000002,-0.31200000000000006 0.406,-0.6060000000000001 0.525,-0.9380000000000001 c0.5780000000000001,-1.613 1.119,-3.239 1.6940000000000002,-4.854 c0.06500000000000002,-0.18300000000000002 0.263,-0.31900000000000006 0.3980000000000001,-0.47700000000000004 l0.012000000000000002,3.64 l-1.218,3.124 l-1.411,-0.49500000000000005 z" clip-rule="evenodd" id="svg_13" class=""/><path fill="#EBE9DC" fill-rule="evenodd" d="M30.573370819091792,122.75754133701325 l1.218,-3.124 l0.251,3.696 l-1.469,-0.5720000000000001 z" clip-rule="evenodd" id="svg_14" class=""/><path fill="#CECDB7" fill-rule="evenodd" d="M32.657370819091796,109.24054133701324 c-0.19600000000000004,-0.8470000000000001 0.129,-1.518 0.7170000000000001,-2.097 l0.3370000000000001,0.23 l-1.054,1.867 z" clip-rule="evenodd" id="svg_15" class=""/><path fill="#4FAA41" fill-rule="evenodd" d="M29.5093708190918,93.51454133701324 l-0.06600000000000002,-0.011000000000000003 l-0.06600000000000002,0.010000000000000002 l0.15500000000000003,-0.559 l-0.023000000000000007,0.56 z" clip-rule="evenodd" id="svg_16" class=""/></g></svg>